<svg width="6" height="4" viewBox="0 0 6 4" fill="none" xmlns="http://www.w3.org/2000/svg">
<path d="M4.73242 0.146484C4.92769 -0.0487306 5.24421 -0.048762 5.43945 0.146484C5.6346 0.341739 5.63463 0.658284 5.43945 0.853516L3.14648 3.14648C3.1222 3.17072 3.09591 3.19176 3.06836 3.20996C3.04067 3.2283 3.01151 3.24362 2.98145 3.25586C2.92115 3.28032 2.85706 3.293 2.79297 3.29297C2.66506 3.29307 2.53713 3.24393 2.43945 3.14648L0.146484 0.853516C-0.0487683 0.658263 -0.0487494 0.341749 0.146484 0.146484C0.341747 -0.0487778 0.658253 -0.0487778 0.853516 0.146484L2.79297 2.08496L4.73242 0.146484Z" fill="white"/>
</svg>
