<svg width="244" height="58" viewBox="0 0 244 58" fill="none" xmlns="http://www.w3.org/2000/svg">
<g filter="url(#filter0_d_223_12)">
<rect x="11" y="11" width="37" height="36" rx="8" fill="#7F42EF"/>
</g>
<path d="M30.3149 21.2814C31.012 20.6137 32.157 21.2238 31.9916 22.175L31.1528 27.0002H37.5004C38.3287 27.0002 39.0002 27.6719 39.0004 28.5002C39.0004 29.012 38.7433 29.4629 38.352 29.7335C38.3132 29.7898 38.2702 29.8459 38.2172 29.8966L30.2123 37.5675C29.5152 38.2346 28.3705 37.6248 28.5356 36.674L29.5786 30.674H23.0024C22.1016 30.6736 21.6607 29.5758 22.311 28.9523L30.3149 21.2814Z" fill="white"/>
<path d="M77.727 21.87V29H72.55V11.33H77.789L82.47 18.46C83.1727 19.514 83.71 20.4027 84.082 21.126H84.175V18.15V11.33H89.321V29H84.051L79.246 21.56L77.851 19.452H77.758L77.727 21.87ZM92.2241 11.33H105.089V15.05H97.8041V18.274H103.942V21.622H97.8041V25.218H105.058V29H92.2241V11.33ZM110.338 19.948L106.184 11.33H111.888L114.74 18.274L117.685 11.33H123.234L119.142 19.948L123.513 29.031H117.809L114.74 21.529L111.578 29.031H105.843L110.338 19.948ZM132.058 29.403C128.978 29.403 126.664 28.6797 125.114 27.233C123.584 25.7657 122.82 23.42 122.82 20.196C122.82 17.034 123.667 14.7297 125.362 13.283C127.056 11.8363 129.299 11.113 132.089 11.113C137.958 11.113 140.893 14.0373 140.893 19.886C140.893 22.8413 140.169 25.1663 138.723 26.861C137.297 28.5557 135.075 29.403 132.058 29.403ZM131.934 25.745C132.512 25.745 132.998 25.652 133.391 25.466C133.783 25.2593 134.093 24.908 134.321 24.412C134.755 23.5647 134.972 22.18 134.972 20.258C134.972 18.3773 134.755 17.0133 134.321 16.166C133.887 15.298 133.091 14.8433 131.934 14.802C131.5 14.802 131.045 14.8537 130.57 14.957C130.115 15.0397 129.826 15.1637 129.702 15.329C129.454 15.6183 129.257 16.2383 129.113 17.189C128.989 18.119 128.927 19.142 128.927 20.258C128.927 21.994 129.092 23.265 129.423 24.071C129.65 24.6703 129.97 25.1043 130.384 25.373C130.797 25.621 131.314 25.745 131.934 25.745ZM159.449 29H153.59L152.536 24.536C152.494 24.3707 152.422 24.0917 152.319 23.699C152.236 23.2857 152.133 22.986 152.009 22.8C151.885 22.5933 151.709 22.459 151.482 22.397C150.903 22.4177 150.056 22.428 148.94 22.428V29H143.36V11.485C145.86 11.299 148.196 11.206 150.366 11.206C152.329 11.206 153.92 11.3713 155.14 11.702C156.359 12.012 157.268 12.5597 157.868 13.345C158.488 14.1097 158.798 15.1637 158.798 16.507C158.798 17.7677 158.508 18.7597 157.93 19.483C157.351 20.1857 156.421 20.6093 155.14 20.754V20.94C155.863 21.002 156.462 21.2397 156.938 21.653C157.434 22.0457 157.764 22.552 157.93 23.172L159.449 29ZM148.94 18.925C149.126 18.9457 149.487 18.956 150.025 18.956C151.616 18.956 152.546 18.8217 152.815 18.553C153.063 18.305 153.187 17.7263 153.187 16.817C153.187 15.9697 152.959 15.391 152.505 15.081C152.071 14.771 151.347 14.616 150.335 14.616C150.107 14.616 149.642 14.6367 148.94 14.678V18.925ZM171.572 25.125H166.426L165.496 29H159.792L165.496 11.33H172.781L178.237 29H172.502L171.572 25.125ZM168.968 15.143L167.139 21.684H170.828L169.092 15.143H168.968Z" fill="white"/>
<path d="M75.48 34.832C76.344 34.832 77.0747 34.912 77.672 35.072C78.2693 35.232 78.744 35.5413 79.096 36C79.4587 36.448 79.64 37.0933 79.64 37.936C79.64 38.3093 79.5813 38.6933 79.464 39.088C79.3573 39.472 79.2187 39.808 79.048 40.096C78.888 40.384 78.744 40.5707 78.616 40.656C78.4667 40.7627 78.136 40.848 77.624 40.912C77.112 40.9653 76.5093 40.992 75.816 40.992C75.5707 40.992 75.192 40.9813 74.68 40.96V44H71.8V34.88C72.92 34.848 74.1467 34.832 75.48 34.832ZM76.68 38.944C76.7867 38.8053 76.84 38.528 76.84 38.112C76.84 37.568 76.7227 37.184 76.488 36.96C76.264 36.736 75.8693 36.624 75.304 36.624C75.112 36.624 74.904 36.64 74.68 36.672V39.104C74.7867 39.1147 74.9947 39.12 75.304 39.12C76.1253 39.12 76.584 39.0613 76.68 38.944ZM82.3394 34.88H88.9794V36.8H85.2194V38.464H88.3874V40.192H85.2194V42.048H88.9634V44H82.3394V34.88ZM100.265 44H97.2406L96.6966 41.696C96.6753 41.6107 96.638 41.4667 96.5846 41.264C96.542 41.0507 96.4886 40.896 96.4246 40.8C96.3606 40.6933 96.27 40.624 96.1526 40.592C95.854 40.6027 95.4166 40.608 94.8406 40.608V44H91.9606V34.96C93.2513 34.864 94.4566 34.816 95.5766 34.816C96.59 34.816 97.4113 34.9013 98.0406 35.072C98.67 35.232 99.1393 35.5147 99.4486 35.92C99.7686 36.3147 99.9286 36.8587 99.9286 37.552C99.9286 38.2027 99.7793 38.7147 99.4806 39.088C99.182 39.4507 98.702 39.6693 98.0406 39.744V39.84C98.414 39.872 98.7233 39.9947 98.9686 40.208C99.2246 40.4107 99.3953 40.672 99.4806 40.992L100.265 44ZM94.8406 38.8C94.9366 38.8107 95.1233 38.816 95.4006 38.816C96.222 38.816 96.702 38.7467 96.8406 38.608C96.9686 38.48 97.0326 38.1813 97.0326 37.712C97.0326 37.2747 96.9153 36.976 96.6806 36.816C96.4566 36.656 96.0833 36.576 95.5606 36.576C95.4433 36.576 95.2033 36.5867 94.8406 36.608V38.8ZM102.97 34.88H109.514V36.864H105.85V38.672H108.874V40.416H105.85V44H102.97V34.88ZM116.694 44.208C115.105 44.208 113.91 43.8347 113.11 43.088C112.321 42.3307 111.926 41.12 111.926 39.456C111.926 37.824 112.364 36.6347 113.238 35.888C114.113 35.1413 115.27 34.768 116.71 34.768C119.74 34.768 121.254 36.2773 121.254 39.296C121.254 40.8213 120.881 42.0213 120.134 42.896C119.398 43.7707 118.252 44.208 116.694 44.208ZM116.63 42.32C116.929 42.32 117.18 42.272 117.382 42.176C117.585 42.0693 117.745 41.888 117.862 41.632C118.086 41.1947 118.198 40.48 118.198 39.488C118.198 38.5173 118.086 37.8133 117.862 37.376C117.638 36.928 117.228 36.6933 116.63 36.672C116.406 36.672 116.172 36.6987 115.926 36.752C115.692 36.7947 115.542 36.8587 115.478 36.944C115.35 37.0933 115.249 37.4133 115.174 37.904C115.11 38.384 115.078 38.912 115.078 39.488C115.078 40.384 115.164 41.04 115.334 41.456C115.452 41.7653 115.617 41.9893 115.83 42.128C116.044 42.256 116.31 42.32 116.63 42.32ZM132.591 44H129.567L129.023 41.696C129.002 41.6107 128.965 41.4667 128.911 41.264C128.869 41.0507 128.815 40.896 128.751 40.8C128.687 40.6933 128.597 40.624 128.479 40.592C128.181 40.6027 127.743 40.608 127.167 40.608V44H124.287V34.96C125.578 34.864 126.783 34.816 127.903 34.816C128.917 34.816 129.738 34.9013 130.367 35.072C130.997 35.232 131.466 35.5147 131.775 35.92C132.095 36.3147 132.255 36.8587 132.255 37.552C132.255 38.2027 132.106 38.7147 131.807 39.088C131.509 39.4507 131.029 39.6693 130.367 39.744V39.84C130.741 39.872 131.05 39.9947 131.295 40.208C131.551 40.4107 131.722 40.672 131.807 40.992L132.591 44ZM127.167 38.8C127.263 38.8107 127.45 38.816 127.727 38.816C128.549 38.816 129.029 38.7467 129.167 38.608C129.295 38.48 129.359 38.1813 129.359 37.712C129.359 37.2747 129.242 36.976 129.007 36.816C128.783 36.656 128.41 36.576 127.887 36.576C127.77 36.576 127.53 36.5867 127.167 36.608V38.8ZM147.089 44H144.401L144.193 38.976C144.161 37.984 144.123 37.232 144.081 36.72H144.033C143.905 37.1253 143.755 37.7547 143.585 38.608L143.505 39.008L142.401 44H139.713L138.785 39.504L138.625 38.704C138.401 37.712 138.246 37.0507 138.161 36.72H138.113C138.07 37.2533 138.033 38.1227 138.001 39.328C137.99 39.4027 137.985 39.52 137.985 39.68L137.841 44H135.137L135.521 34.88H140.097L140.881 38.816L141.073 39.872C141.158 39.5413 141.238 39.1733 141.313 38.768L142.049 34.88H146.721L147.089 44ZM155.541 42H152.885L152.405 44H149.461L152.405 34.88H156.165L158.981 44H156.021L155.541 42ZM154.197 36.848L153.253 40.224H155.157L154.261 36.848H154.197ZM164.208 40.32V44H161.536V34.88H164.24L166.656 38.56C167.019 39.104 167.296 39.5627 167.488 39.936H167.536V38.4V34.88H170.192V44H167.472L164.992 40.16L164.272 39.072H164.224L164.208 40.32ZM180.683 43.696C180.288 43.8667 179.829 43.9893 179.307 44.064C178.784 44.1387 178.299 44.176 177.851 44.176C176.4 44.176 175.264 43.7973 174.443 43.04C173.621 42.2827 173.211 41.12 173.211 39.552C173.211 37.952 173.643 36.7573 174.507 35.968C175.371 35.168 176.587 34.768 178.155 34.768C178.901 34.768 179.68 34.8693 180.491 35.072C180.491 35.2853 180.469 35.6053 180.427 36.032C180.384 36.448 180.341 36.7413 180.299 36.912H179.291C178.555 36.912 177.973 36.928 177.547 36.96C177.131 36.9813 176.88 37.0293 176.795 37.104C176.635 37.2533 176.512 37.5573 176.427 38.016C176.341 38.464 176.299 38.896 176.299 39.312C176.299 40.0373 176.389 40.5973 176.571 40.992C176.752 41.376 176.981 41.632 177.259 41.76C177.525 41.888 177.968 41.952 178.587 41.952C179.077 41.952 179.717 41.9093 180.507 41.824L180.683 43.696ZM183.414 34.88H190.054V36.8H186.294V38.464H189.462V40.192H186.294V42.048H190.038V44H183.414V34.88Z" fill="url(#paint0_linear_223_12)"/>
<defs>
<filter id="filter0_d_223_12" x="0" y="0" width="59" height="58" filterUnits="userSpaceOnUse" color-interpolation-filters="sRGB">
<feFlood flood-opacity="0" result="BackgroundImageFix"/>
<feColorMatrix in="SourceAlpha" type="matrix" values="0 0 0 0 0 0 0 0 0 0 0 0 0 0 0 0 0 0 127 0" result="hardAlpha"/>
<feMorphology radius="4" operator="erode" in="SourceAlpha" result="effect1_dropShadow_223_12"/>
<feOffset/>
<feGaussianBlur stdDeviation="7.5"/>
<feComposite in2="hardAlpha" operator="out"/>
<feColorMatrix type="matrix" values="0 0 0 0 0.498039 0 0 0 0 0.258824 0 0 0 0 0.937255 0 0 0 1 0"/>
<feBlend mode="normal" in2="BackgroundImageFix" result="effect1_dropShadow_223_12"/>
<feBlend mode="normal" in="SourceGraphic" in2="effect1_dropShadow_223_12" result="shape"/>
</filter>
<linearGradient id="paint0_linear_223_12" x1="71" y1="40.5" x2="156.673" y2="40.5" gradientUnits="userSpaceOnUse">
<stop stop-color="#0BAACC"/>
<stop offset="1" stop-color="#7855DA"/>
</linearGradient>
</defs>
</svg>
