<svg width="26" height="26" viewBox="0 0 26 26" fill="none" xmlns="http://www.w3.org/2000/svg">
<rect width="26" height="26" rx="2" fill="#101013"/>
<path d="M12.6667 19.3333C16.3486 19.3333 19.3333 16.3486 19.3333 12.6667C19.3333 8.98477 16.3486 6 12.6667 6C8.98477 6 6 8.98477 6 12.6667C6 16.3486 8.98477 19.3333 12.6667 19.3333Z" stroke="#5A687D" stroke-width="1.33333" stroke-linecap="round" stroke-linejoin="round"/>
<path d="M12.6667 6C10.9548 7.79744 10 10.1845 10 12.6667C10 15.1488 10.9548 17.5359 12.6667 19.3333C14.3785 17.5359 15.3333 15.1488 15.3333 12.6667C15.3333 10.1845 14.3785 7.79744 12.6667 6Z" stroke="#5A687D" stroke-width="1.33333" stroke-linecap="round" stroke-linejoin="round"/>
<path d="M6 12.667H19.3333" stroke="#5A687D" stroke-width="1.33333" stroke-linecap="round" stroke-linejoin="round"/>
</svg>
