<svg width="26" height="26" viewBox="0 0 26 26" fill="none" xmlns="http://www.w3.org/2000/svg">
<path d="M24.999 0C25.5513 4.07147e-05 25.999 0.44774 25.999 1V5C25.999 5.2652 25.8936 5.5195 25.7061 5.70703L11.0801 20.333L12.373 21.626C12.7635 22.0165 12.7635 22.6495 12.373 23.04C11.9825 23.4306 11.3495 23.4305 10.959 23.04L7.66602 19.7471L3.74707 23.666L4.37402 24.293C4.76417 24.6835 4.76439 25.3166 4.37402 25.707C3.98362 26.0974 3.35051 26.0972 2.95996 25.707L0.292969 23.04C-0.0975556 22.6495 -0.0975556 22.0165 0.292969 21.626C0.683496 21.2355 1.31652 21.2355 1.70703 21.626L2.33301 22.252L6.25195 18.333L2.95898 15.04C2.56846 14.6495 2.56846 14.0165 2.95898 13.626C3.34951 13.2355 3.98254 13.2355 4.37305 13.626L5.66602 14.9189L20.292 0.292969C20.4794 0.105533 20.7339 8.6333e-05 20.999 0H24.999ZM7.08008 16.333L8.36426 17.6172C8.36737 17.6202 8.37094 17.6229 8.37402 17.626C8.3768 17.6287 8.3791 17.632 8.38184 17.6348L9.66602 18.9189L23.999 4.58594V2H21.4131L7.08008 16.333Z" fill="#4D5A6C"/>
</svg>
