<svg width="29" height="29" viewBox="0 0 29 29" fill="none" xmlns="http://www.w3.org/2000/svg">
<path d="M14.333 0C22.249 0 28.6668 6.41708 28.667 14.333C28.667 22.2491 22.2491 28.667 14.333 28.667C6.41708 28.6668 0 22.249 0 14.333C0.000176274 6.41718 6.41718 0.000176263 14.333 0ZM14.333 2C7.52175 2.00018 2.00018 7.52175 2 14.333C2 21.1444 7.52165 26.6668 14.333 26.667C21.1445 26.667 26.667 21.1445 26.667 14.333C26.6668 7.52165 21.1444 2 14.333 2ZM14.334 5.33301C19.3045 5.33301 23.334 9.36245 23.334 14.333C23.334 19.3036 19.3045 23.333 14.334 23.333C9.36342 23.333 5.33398 19.3036 5.33398 14.333C5.33398 9.36245 9.36342 5.33301 14.334 5.33301ZM14.334 7.33301C10.468 7.33301 7.33398 10.467 7.33398 14.333C7.33398 18.199 10.468 21.333 14.334 21.333C18.2 21.333 21.334 18.199 21.334 14.333C21.334 10.467 18.2 7.33301 14.334 7.33301ZM14.334 10.666C16.3589 10.6662 18 12.3081 18 14.333C17.9998 16.3578 16.3588 17.9988 14.334 17.999C12.309 17.999 10.6672 16.3579 10.667 14.333C10.667 12.308 12.3089 10.666 14.334 10.666ZM14.334 12.666C13.4135 12.666 12.667 13.4125 12.667 14.333C12.6672 15.2533 13.4136 15.999 14.334 15.999C15.2542 15.9988 15.9998 15.2532 16 14.333C16 13.4126 15.2543 12.6662 14.334 12.666Z" fill="#4D5A6C"/>
</svg>
