<svg width="23" height="28" viewBox="0 0 23 28" fill="none" xmlns="http://www.w3.org/2000/svg">
<path d="M22 15.2982C22 21.7971 17.4062 25.0466 11.9462 26.9312C11.6603 27.0272 11.3498 27.0226 11.0669 26.9182C5.59375 25.0466 1 21.7971 1 15.2982V6.19971C1 5.85499 1.13828 5.52439 1.38442 5.28063C1.63056 5.03687 1.9644 4.89993 2.3125 4.89993C4.9375 4.89993 8.21875 3.34019 10.5025 1.36452C10.7806 1.12926 11.1343 1 11.5 1C11.8657 1 12.2194 1.12926 12.4975 1.36452C14.7944 3.35319 18.0625 4.89993 20.6875 4.89993C21.0356 4.89993 21.3694 5.03687 21.6156 5.28063C21.8617 5.52439 22 5.85499 22 6.19971V15.2982Z" stroke="#4D5A6C" stroke-width="2" stroke-linecap="round" stroke-linejoin="round"/>
</svg>
